<svg xmlns="http://www.w3.org/2000/svg" viewBox="0 0 426 428"><defs><style>.cls-1{fill:#d1ab25;}</style></defs><g id="Layer_2" data-name="Layer 2"><g id="Layer_1-2" data-name="Layer 1"><path class="cls-1" d="M346.64,62.61A203.35,203.35,0,0,0,222,20C109.51,20,18,111.51,18,224A204.15,204.15,0,0,0,222,428c112.49,0,204-91.51,204-204A203.75,203.75,0,0,0,346.64,62.61Zm-94.3,332.74A174,174,0,0,1,48,224c0-95.94,78.06-174,174-174A173.12,173.12,0,0,1,328,86.11a174.75,174.75,0,0,1,58.12,80.08c1,2.74,1.87,5.5,2.7,8.3h0q2.21,7.41,3.76,15.07.56,2.75,1,5.52a171.13,171.13,0,0,1,2.05,17.67q.36,5.58.36,11.24c0,.53,0,1.06,0,1.59a170.73,170.73,0,0,1-1.17,18.61v.1q-.33,2.87-.77,5.7h0a169.22,169.22,0,0,1-3.69,18c-.14.56-.29,1.12-.44,1.67A174.55,174.55,0,0,1,252.34,395.35Z"/><path class="cls-1" d="M401.64,189c-.15-2.52-.34-5-.59-7.53A201.29,201.29,0,0,0,201,0C90.17,0,0,90.17,0,201A201.06,201.06,0,0,0,252.34,395.35a175,175,0,0,1-57.31.56A195.11,195.11,0,0,1,6,201C6,93.48,93.48,6,201,6A195.25,195.25,0,0,1,393.9,172.43c.46,3,.83,6,1.13,9.1q.3,2.88.49,5.8c.15,2,.25,4,.32,6,.11,2.53.16,5.08.16,7.63q0,5.92-.36,11.76.36,5.58.36,11.24c0,.53,0,1.06,0,1.59a170.73,170.73,0,0,1-1.17,18.61v.1q-.33,2.87-.77,5.7h0a169.22,169.22,0,0,1-3.69,18c-.14.56-.29,1.12-.44,1.67.24-.66.48-1.32.71-2a198.85,198.85,0,0,0,8.53-32.9A201.09,201.09,0,0,0,402,201Q402,194.94,401.64,189Z"/><path class="cls-1" d="M358.84,281.17A169,169,0,0,1,39,205c0-93.19,75.81-169,169-169A169.38,169.38,0,0,1,371,160.4a35.24,35.24,0,0,1,6.64,1.65A175.32,175.32,0,0,0,208,30C111.5,30,33,108.5,33,205a175,175,0,0,0,332.61,76,40.52,40.52,0,0,1-4.29.23C360.49,281.25,359.66,281.22,358.84,281.17Z"/><path class="cls-1" d="M139.8,259.78a36.87,36.87,0,0,1-13.92,2.85,38.94,38.94,0,0,1-15.94-3.29,40.73,40.73,0,0,1-12.94-9,43.42,43.42,0,0,1-8.76-13.4,43.07,43.07,0,0,1,0-32.63A43.38,43.38,0,0,1,97,190.87a40.57,40.57,0,0,1,12.94-9.05,38.78,38.78,0,0,1,15.94-3.29,37.26,37.26,0,0,1,13.92,2.68,52.91,52.91,0,0,1,13,7.65l7.79-8.09A60.31,60.31,0,0,0,144,170.67a48.66,48.66,0,0,0-18.11-3.51,49.75,49.75,0,0,0-20.28,4.18,52,52,0,0,0-16.54,11.45,54.59,54.59,0,0,0,0,75.57,52,52,0,0,0,16.54,11.46A49.75,49.75,0,0,0,125.88,274,46.86,46.86,0,0,0,143,270.79a64.12,64.12,0,0,0,15.79-8.91L153.12,252A54.51,54.51,0,0,1,139.8,259.78Z"/><path class="cls-1" d="M178.72,168.2V273h10.92V168.2Z"/><path class="cls-1" d="M310.33,199.77a53.69,53.69,0,0,0-28.44-28.43,54.21,54.21,0,0,0-41.75,0,53.09,53.09,0,0,0-16.92,11.45,54.72,54.72,0,0,0-11.37,17,53.87,53.87,0,0,0,0,41.61,54.72,54.72,0,0,0,11.37,17,53.12,53.12,0,0,0,16.92,11.46,54.21,54.21,0,0,0,41.75,0,53.76,53.76,0,0,0,28.44-28.44,53.87,53.87,0,0,0,0-41.61ZM299.7,236.89a43.65,43.65,0,0,1-9,13.4,42,42,0,0,1-13.33,9,42.07,42.07,0,0,1-32.62,0,42.5,42.5,0,0,1-22.45-22.45,42.1,42.1,0,0,1,0-32.63,42.53,42.53,0,0,1,22.45-22.44,42.07,42.07,0,0,1,32.62,0,41.8,41.8,0,0,1,13.33,9.05,43.6,43.6,0,0,1,9,13.39,42.1,42.1,0,0,1,0,32.63Z"/><path class="cls-1" d="M341.1,197.42a14.55,14.55,0,0,0,1.72,7.26,17.89,17.89,0,0,0,4.42,5.24,22.64,22.64,0,0,0,6.21,3.52,62.92,62.92,0,0,0,7.11,2.24,44.16,44.16,0,0,1,10.1,3.22,27.71,27.71,0,0,1,8.08,5.54,24.48,24.48,0,0,1,5.31,8.08,28.62,28.62,0,0,1,1.95,11,29.39,29.39,0,0,1-2.4,11.82,30.53,30.53,0,0,1-6.51,9.65,29.89,29.89,0,0,1-9.57,6.44,29.52,29.52,0,0,1-11.6,2.32,27.87,27.87,0,0,1-14.59-4.19,38.28,38.28,0,0,1-11.75-11.08l8.53-6.58a29.85,29.85,0,0,0,8.08,7.56,18,18,0,0,0,9.73,2.91,19.19,19.19,0,0,0,7.55-1.49,20,20,0,0,0,6.14-4,19.76,19.76,0,0,0,4.19-6,17.4,17.4,0,0,0,1.57-7.33,16.14,16.14,0,0,0-1.12-6,17.64,17.64,0,0,0-3.07-5.09v.15a13.91,13.91,0,0,0-7-4.64,82.49,82.49,0,0,0-8.3-1.94q-2.55-.6-5.62-1.5a34,34,0,0,1-5.46-2.09,30.09,30.09,0,0,1-10.32-10.33,27.44,27.44,0,0,1-4-14.67,29.38,29.38,0,0,1,2.39-11.82,30.53,30.53,0,0,1,6.51-9.65,31.14,31.14,0,0,1,9.58-6.51,28.53,28.53,0,0,1,26.34,1.79,37.76,37.76,0,0,1,11.89,11.08L378.36,189a29.18,29.18,0,0,0-8-7.7,17.85,17.85,0,0,0-9.8-2.92,19.17,19.17,0,0,0-13.7,5.61,20.85,20.85,0,0,0-4.19,6.06A17.43,17.43,0,0,0,341.1,197.42Z"/></g></g></svg>