<svg xmlns="http://www.w3.org/2000/svg" xmlns:xlink="http://www.w3.org/1999/xlink" viewBox="0 0 426 428"><defs><style>.cls-1{fill:url(#linear-gradient);}.cls-2{fill:url(#linear-gradient-2);}.cls-3{fill:url(#linear-gradient-3);}.cls-4{fill:url(#linear-gradient-4);}.cls-5{fill:url(#linear-gradient-5);}</style><linearGradient id="linear-gradient" y1="214" x2="426" y2="214" gradientUnits="userSpaceOnUse"><stop offset="0" stop-color="#573420"/><stop offset="0.11" stop-color="#724f21"/><stop offset="0.28" stop-color="#947023"/><stop offset="0.45" stop-color="#af8a24"/><stop offset="0.63" stop-color="#c29c24"/><stop offset="0.81" stop-color="#cda725"/><stop offset="1" stop-color="#d1ab25"/></linearGradient><linearGradient id="linear-gradient-2" x1="73.95" y1="220.58" x2="160.6" y2="220.58" gradientUnits="userSpaceOnUse"><stop offset="0" stop-color="#573420"/><stop offset="0.86" stop-color="#573420"/><stop offset="1" stop-color="#573420"/></linearGradient><linearGradient id="linear-gradient-3" x1="178.72" y1="220.58" x2="189.64" y2="220.58" gradientUnits="userSpaceOnUse"><stop offset="0" stop-color="#573420"/><stop offset="1" stop-color="#573420"/></linearGradient><linearGradient id="linear-gradient-4" x1="207.67" y1="220.58" x2="314.51" y2="220.58" xlink:href="#linear-gradient"/><linearGradient id="linear-gradient-5" x1="329.58" y1="220.4" x2="387.19" y2="220.4" gradientUnits="userSpaceOnUse"><stop offset="0" stop-color="#d1ab25"/><stop offset="0.03" stop-color="#d1ab25"/><stop offset="1" stop-color="#d1ab25"/></linearGradient></defs><g id="Layer_2" data-name="Layer 2"><g id="Layer_1-2" data-name="Layer 1"><path class="cls-1" d="M346.64,62.61A200.44,200.44,0,0,0,201,0C90.17,0,0,90.17,0,201A200.1,200.1,0,0,0,49.84,333.33,204,204,0,0,0,222,428c112.49,0,204-91.51,204-204A203.75,203.75,0,0,0,346.64,62.61ZM6,201C6,93.48,93.48,6,201,6A193.87,193.87,0,0,1,313,41.43,202.69,202.69,0,0,0,222,20C109.51,20,18,111.51,18,224a202.92,202.92,0,0,0,13.91,74.05A193.76,193.76,0,0,1,6,201Zm388.82,43.2v.1q-.33,2.87-.77,5.7h0a169.22,169.22,0,0,1-3.69,18c-.14.56-.29,1.12-.44,1.67a173.94,173.94,0,0,1-310.6,53.84A174.89,174.89,0,0,0,365.61,281a40.52,40.52,0,0,1-4.29.23c-.83,0-1.66,0-2.48-.08a169,169,0,0,1-300.07,3.1A172.93,172.93,0,0,1,48,224c0-95.94,78.06-174,174-174A173.12,173.12,0,0,1,328,86.11a169.11,169.11,0,0,1,43,74.29,35.24,35.24,0,0,1,6.64,1.65,173.88,173.88,0,0,0-18.14-44.52,173.74,173.74,0,0,1,26.59,48.66c1,2.74,1.87,5.5,2.7,8.3h0q2.21,7.41,3.76,15.07.56,2.75,1,5.52a171.13,171.13,0,0,1,2.05,17.67q.36,5.58.36,11.24c0,.53,0,1.06,0,1.59A170.73,170.73,0,0,1,394.82,244.2Z"/><path class="cls-2" d="M97,190.87a40.57,40.57,0,0,1,12.94-9.05,38.78,38.78,0,0,1,15.94-3.29,37.26,37.26,0,0,1,13.92,2.68,52.91,52.91,0,0,1,13,7.65l7.79-8.09A60.31,60.31,0,0,0,144,170.67a48.66,48.66,0,0,0-18.11-3.51,49.75,49.75,0,0,0-20.28,4.18,52,52,0,0,0-16.54,11.45,54.59,54.59,0,0,0,0,75.57,52,52,0,0,0,16.54,11.46A49.75,49.75,0,0,0,125.88,274,46.86,46.86,0,0,0,143,270.79a64.12,64.12,0,0,0,15.79-8.91L153.12,252a54.51,54.51,0,0,1-13.32,7.77,36.87,36.87,0,0,1-13.92,2.85,38.94,38.94,0,0,1-15.94-3.29,40.73,40.73,0,0,1-12.94-9,43.42,43.42,0,0,1-8.76-13.4,43.07,43.07,0,0,1,0-32.63A43.38,43.38,0,0,1,97,190.87Z"/><rect class="cls-3" x="178.72" y="168.2" width="10.92" height="104.76"/><path class="cls-4" d="M298.87,182.79a53.81,53.81,0,0,0-17-11.45,54.21,54.21,0,0,0-41.75,0,53.09,53.09,0,0,0-16.92,11.45,54.72,54.72,0,0,0-11.37,17,53.87,53.87,0,0,0,0,41.61,54.72,54.72,0,0,0,11.37,17,53.12,53.12,0,0,0,16.92,11.46,54.21,54.21,0,0,0,41.75,0,53.76,53.76,0,0,0,28.44-28.44,53.87,53.87,0,0,0,0-41.61A53.78,53.78,0,0,0,298.87,182.79Zm.83,54.1a43.65,43.65,0,0,1-9,13.4,42,42,0,0,1-13.33,9,42.07,42.07,0,0,1-32.62,0,42.5,42.5,0,0,1-22.45-22.45,42.1,42.1,0,0,1,0-32.63,42.53,42.53,0,0,1,22.45-22.44,42.07,42.07,0,0,1,32.62,0,41.8,41.8,0,0,1,13.33,9.05,43.6,43.6,0,0,1,9,13.39,42.1,42.1,0,0,1,0,32.63Z"/><path class="cls-5" d="M346.86,184a19.17,19.17,0,0,1,13.7-5.61,17.85,17.85,0,0,1,9.8,2.92,29.18,29.18,0,0,1,8,7.7l8.83-6.73a37.76,37.76,0,0,0-11.89-11.08A28.53,28.53,0,0,0,349,169.44a31.14,31.14,0,0,0-9.58,6.51,30.7,30.7,0,0,0-6.51,9.65,29.38,29.38,0,0,0-2.39,11.82,27.44,27.44,0,0,0,4,14.67,30.09,30.09,0,0,0,10.32,10.33,34,34,0,0,0,5.46,2.09q3.07.9,5.62,1.5a82.49,82.49,0,0,1,8.3,1.94,13.91,13.91,0,0,1,7,4.64v-.15a17.64,17.64,0,0,1,3.07,5.09,16.14,16.14,0,0,1,1.12,6,17.4,17.4,0,0,1-1.57,7.33,19.76,19.76,0,0,1-4.19,6,20,20,0,0,1-6.14,4,19.19,19.19,0,0,1-7.55,1.49,18,18,0,0,1-9.73-2.91,29.85,29.85,0,0,1-8.08-7.56l-8.53,6.58a38.36,38.36,0,0,0,11.74,11.08,27.93,27.93,0,0,0,14.6,4.19,29.52,29.52,0,0,0,11.6-2.32,29.89,29.89,0,0,0,9.57-6.44,30.53,30.53,0,0,0,6.51-9.65,29.39,29.39,0,0,0,2.4-11.82,28.62,28.62,0,0,0-1.95-11,24.48,24.48,0,0,0-5.31-8.08,27.71,27.71,0,0,0-8.08-5.54,44.16,44.16,0,0,0-10.1-3.22,62.92,62.92,0,0,1-7.11-2.24,22.64,22.64,0,0,1-6.21-3.52,17.89,17.89,0,0,1-4.42-5.24,14.55,14.55,0,0,1-1.72-7.26,17.43,17.43,0,0,1,1.57-7.33A20.85,20.85,0,0,1,346.86,184Z"/></g></g></svg>